<svg width="138" height="136" viewBox="0 0 138 136" fill="none" xmlns="http://www.w3.org/2000/svg" xmlns:xlink="http://www.w3.org/1999/xlink">
<path d="M43.202,11.378L43.202,22.654L43.211,22.654L43.202,11.378ZM68.573,124.137L64.501,134.652C67.121,135.666 70.025,135.666 72.644,134.652L68.573,124.137ZM68.573,26.732L58.914,32.551C60.953,35.935 64.615,38.005 68.566,38.008C72.517,38.01 76.181,35.944 78.224,32.562L68.573,26.732ZM43.202,0.102C18.293,0.102 0.917,23.009 0.917,47.512L23.469,47.512C23.469,32.104 33.861,22.654 43.202,22.654L43.202,0.102ZM0.917,47.512C0.917,69.3 11.855,89.059 24.391,103.811C36.896,118.527 52.453,129.987 64.501,134.652L72.644,113.622C64.96,110.646 52.328,101.861 41.576,89.208C30.855,76.591 23.469,61.859 23.469,47.512L0.917,47.512ZM72.644,134.652C84.693,129.987 100.25,118.527 112.755,103.811C125.29,89.059 136.228,69.3 136.228,47.512L113.676,47.512C113.676,61.859 106.291,76.591 95.57,89.208C84.818,101.861 72.185,110.646 64.501,113.622L72.644,134.652ZM136.228,47.512C136.228,23.009 118.853,0.102 93.943,0.102L93.943,22.654C103.285,22.654 113.676,32.104 113.676,47.512L136.228,47.512ZM93.943,0.102C78.841,0.102 66.202,8.848 58.921,20.901L78.224,32.562C82.163,26.042 88.073,22.654 93.943,22.654L93.943,0.102ZM78.231,20.913C74.499,14.718 69.432,9.482 63.337,5.793L51.66,25.087C54.398,26.743 56.928,29.254 58.914,32.551L78.231,20.913ZM63.337,5.793C57.226,2.095 50.31,0.096 43.193,0.102L43.211,22.654C46.047,22.651 48.939,23.439 51.66,25.087L63.337,5.793Z" fill="#000000"/>
</svg>
