<svg width="146" height="158" viewBox="0 0 146 158" fill="none" xmlns="http://www.w3.org/2000/svg" xmlns:xlink="http://www.w3.org/1999/xlink">
<path d="M102.253,152.582C102.253,153.808 101.766,154.984 100.898,155.852C100.031,156.719 98.855,157.206 97.628,157.206L48.296,157.206C47.069,157.206 45.893,156.719 45.026,155.852C44.158,154.984 43.671,153.808 43.671,152.582C43.671,151.355 44.158,150.179 45.026,149.311C45.893,148.444 47.069,147.957 48.296,147.957L97.628,147.957C98.855,147.957 100.031,148.444 100.898,149.311C101.766,150.179 102.253,151.355 102.253,152.582ZM143.961,127.145C143.026,128.792 141.669,130.159 140.03,131.108C138.391,132.056 136.528,132.551 134.635,132.54L11.297,132.54C9.4,132.536 7.538,132.033 5.898,131.079C4.258,130.126 2.898,128.758 1.955,127.112C1.012,125.466 0.52,123.6 0.528,121.703C0.536,119.806 1.044,117.945 2.001,116.307C6.356,108.799 12.839,87.633 12.839,60.084C12.839,44.138 19.173,28.846 30.448,17.571C41.724,6.295 57.016,-0.039 72.962,-0.039C88.908,-0.039 104.2,6.295 115.476,17.571C126.751,28.846 133.085,44.138 133.085,60.084C133.085,87.625 139.576,108.799 143.938,116.307C144.905,117.948 145.417,119.818 145.421,121.723C145.425,123.628 144.921,125.499 143.961,127.145ZM135.937,120.978C130.102,110.958 123.836,87.587 123.836,60.084C123.836,46.592 118.476,33.652 108.935,24.111C99.394,14.57 86.455,9.211 72.962,9.211C59.469,9.211 46.53,14.57 36.989,24.111C27.448,33.652 22.088,46.592 22.088,60.084C22.088,87.594 15.814,110.958 9.979,120.978C9.844,121.213 9.772,121.478 9.772,121.749C9.772,122.02 9.844,122.286 9.979,122.52C10.106,122.756 10.295,122.953 10.526,123.089C10.757,123.225 11.021,123.294 11.289,123.291L134.627,123.291C134.895,123.294 135.159,123.225 135.39,123.089C135.621,122.953 135.81,122.756 135.937,122.52C136.073,122.286 136.144,122.02 136.144,121.749C136.144,121.478 136.073,121.213 135.937,120.978Z" transform="rotate(0 72.975 78.584)" fill="#6C6C6C"/>
</svg>
