<svg width="42" height="42" viewBox="0 0 42 42" fill="none" xmlns="http://www.w3.org/2000/svg" xmlns:xlink="http://www.w3.org/1999/xlink">
<path d="M12.493,3.364L12.493,6.824L12.496,6.824L12.493,3.364ZM20.278,37.965L19.029,41.191C19.833,41.503 20.724,41.503 21.528,41.191L20.278,37.965ZM20.278,8.075L17.314,9.861C17.94,10.899 19.064,11.534 20.276,11.535C21.489,11.536 22.613,10.902 23.24,9.864L20.278,8.075ZM12.493,-0.097C4.849,-0.097 -0.483,6.933 -0.483,14.452L6.438,14.452C6.438,9.723 9.627,6.824 12.493,6.824L12.493,-0.097ZM-0.483,14.452C-0.483,21.137 2.874,27.201 6.72,31.728C10.558,36.243 15.332,39.76 19.029,41.191L21.528,34.738C19.17,33.825 15.293,31.129 11.994,27.246C8.704,23.375 6.438,18.854 6.438,14.452L-0.483,14.452ZM21.528,41.191C25.225,39.76 29.999,36.243 33.836,31.728C37.682,27.201 41.039,21.137 41.039,14.452L34.119,14.452C34.119,18.854 31.852,23.375 28.562,27.246C25.263,31.129 21.387,33.825 19.029,34.738L21.528,41.191ZM41.039,14.452C41.039,6.933 35.707,-0.097 28.063,-0.097L28.063,6.824C30.93,6.824 34.119,9.723 34.119,14.452L41.039,14.452ZM28.063,-0.097C23.429,-0.097 19.551,2.587 17.316,6.286L23.24,9.864C24.448,7.863 26.262,6.824 28.063,6.824L28.063,-0.097ZM23.242,6.289C22.097,4.388 20.542,2.782 18.671,1.65L15.088,7.57C15.928,8.079 16.705,8.849 17.314,9.861L23.242,6.289ZM18.671,1.65C16.796,0.515 14.674,-0.098 12.49,-0.097L12.496,6.824C13.366,6.823 14.253,7.065 15.088,7.57L18.671,1.65Z" transform="rotate(8 20.278 20.664)" fill="#000000"/>
</svg>
