<svg width="170" height="170" viewBox="0 0 170 170" fill="none" xmlns="http://www.w3.org/2000/svg" xmlns:xlink="http://www.w3.org/1999/xlink">
<path d="M50.38,169.973C45.725,169.973 41.738,168.316 38.42,165C35.101,161.685 33.445,157.705 33.451,153.059C33.451,148.408 35.11,144.425 38.428,141.11C41.746,137.795 45.73,136.14 50.38,136.146C55.036,136.146 59.023,137.803 62.341,141.118C65.659,144.433 67.315,148.414 67.31,153.059C67.31,157.711 65.651,161.694 62.332,165.009C59.014,168.324 55.03,169.979 50.38,169.973ZM135.027,169.973C130.372,169.973 126.385,168.316 123.067,165C119.749,161.685 118.092,157.705 118.098,153.059C118.098,148.408 119.757,144.425 123.075,141.11C126.393,137.795 130.377,136.14 135.027,136.146C139.683,136.146 143.67,137.803 146.988,141.118C150.306,144.433 151.963,148.414 151.957,153.059C151.957,157.711 150.298,161.694 146.98,165.009C143.661,168.324 139.677,169.979 135.027,169.973ZM43.185,34.663L63.5,76.947L122.754,76.947L146.032,34.663L43.185,34.663ZM35.144,17.749L159.998,17.749C163.243,17.749 165.712,19.195 167.405,22.087C169.098,24.979 169.169,27.903 167.617,30.857L137.567,84.981C136.015,87.8 133.933,89.985 131.32,91.535C128.707,93.086 125.852,93.861 122.754,93.861L59.691,93.861L50.38,110.775L151.957,110.775L151.957,127.689L50.38,127.689C44.032,127.689 39.235,124.903 35.99,119.333C32.745,113.763 32.604,108.232 35.567,102.741L46.994,82.021L16.521,17.749L-0.408,17.749L-0.408,0.835L27.102,0.835L35.144,17.749Z" transform="rotate(0 84.161 85.404)" fill="#6C6C6C"/>
</svg>
