<svg width="104" height="104" viewBox="0 0 104 104" fill="none" xmlns="http://www.w3.org/2000/svg" xmlns:xlink="http://www.w3.org/1999/xlink">
<path d="M92.361,100.516L60.071,68.18C57.188,70.489 53.873,72.318 50.125,73.665C46.377,75.013 42.389,75.686 38.16,75.686C27.685,75.686 18.821,72.052 11.567,64.784C4.313,57.516 0.685,48.639 0.681,38.153C0.681,27.663 4.309,18.786 11.567,11.522C18.825,4.258 27.689,0.624 38.16,0.621C48.635,0.621 57.499,4.255 64.753,11.522C72.007,18.79 75.636,27.667 75.64,38.153C75.64,42.388 74.967,46.382 73.621,50.135C72.276,53.888 70.45,57.209 68.144,60.096L100.578,92.576C101.635,93.635 102.163,94.934 102.163,96.474C102.163,98.013 101.587,99.361 100.434,100.516C99.377,101.574 98.031,102.103 96.397,102.103C94.764,102.103 93.418,101.574 92.361,100.516ZM38.16,64.138C45.368,64.138 51.495,61.61 56.542,56.556C61.59,51.502 64.111,45.367 64.107,38.153C64.107,30.936 61.584,24.799 56.537,19.745C51.489,14.691 45.364,12.165 38.16,12.169C30.952,12.169 24.825,14.696 19.778,19.751C14.731,24.805 12.209,30.939 12.213,38.153C12.213,45.371 14.736,51.507 19.784,56.562C24.831,61.616 30.956,64.141 38.16,64.138Z" transform="rotate(0 51.422 51.362)" fill="#000000"/>
</svg>
