<svg width="32" height="32" viewBox="0 0 32 32" fill="none" xmlns="http://www.w3.org/2000/svg" xmlns:xlink="http://www.w3.org/1999/xlink">
<path d="M28.729,29.806L18.821,19.884C17.936,20.593 16.919,21.154 15.769,21.567C14.619,21.981 13.395,22.187 12.097,22.187C8.883,22.187 6.163,21.072 3.937,18.842C1.711,16.612 0.597,13.888 0.596,10.67C0.596,7.451 1.71,4.727 3.937,2.498C6.164,0.269 8.884,-0.846 12.097,-0.847C15.312,-0.847 18.032,0.268 20.258,2.498C22.484,4.728 23.597,7.452 23.598,10.67C23.598,11.969 23.392,13.195 22.979,14.347C22.566,15.498 22.006,16.517 21.298,17.403L31.251,27.37C31.575,27.695 31.737,28.094 31.737,28.566C31.737,29.039 31.56,29.452 31.207,29.806C30.882,30.131 30.469,30.294 29.968,30.294C29.467,30.294 29.054,30.131 28.729,29.806ZM12.097,18.644C14.309,18.644 16.189,17.868 17.738,16.317C19.287,14.766 20.061,12.884 20.059,10.67C20.059,8.455 19.285,6.572 17.736,5.021C16.187,3.47 14.308,2.695 12.097,2.697C9.886,2.697 8.005,3.472 6.456,5.023C4.908,6.574 4.134,8.456 4.135,10.67C4.135,12.885 4.909,14.768 6.458,16.319C8.007,17.87 9.887,18.645 12.097,18.644Z" transform="rotate(0 16.167 14.723)" fill="#000000"/>
</svg>
