<svg width="54" height="52" viewBox="0 0 54 52" fill="none" xmlns="http://www.w3.org/2000/svg" xmlns:xlink="http://www.w3.org/1999/xlink">
<path d="M15.998,51.539C14.569,51.539 13.346,51.03 12.328,50.013C11.31,48.996 10.801,47.774 10.803,46.349C10.803,44.922 11.312,43.699 12.33,42.682C13.349,41.665 14.571,41.157 15.998,41.159C17.427,41.159 18.65,41.667 19.668,42.685C20.687,43.702 21.195,44.923 21.193,46.349C21.193,47.776 20.684,48.998 19.666,50.016C18.648,51.033 17.425,51.541 15.998,51.539ZM41.973,51.539C40.544,51.539 39.321,51.03 38.303,50.013C37.284,48.996 36.776,47.774 36.778,46.349C36.778,44.922 37.287,43.699 38.305,42.682C39.323,41.665 40.546,41.157 41.973,41.159C43.402,41.159 44.625,41.667 45.643,42.685C46.661,43.702 47.17,44.923 47.168,46.349C47.168,47.776 46.659,48.998 45.641,50.016C44.622,51.033 43.4,51.541 41.973,51.539ZM13.79,10.018L20.024,22.993L38.207,22.993L45.35,10.018L13.79,10.018ZM11.323,4.828L49.635,4.828C50.631,4.828 51.389,5.271 51.908,6.159C52.428,7.046 52.449,7.943 51.973,8.85L42.752,25.458C42.276,26.323 41.637,26.994 40.835,27.47C40.033,27.945 39.157,28.183 38.207,28.183L18.855,28.183L15.998,33.373L47.168,33.373L47.168,38.564L15.998,38.564C14.05,38.564 12.578,37.709 11.582,36C10.587,34.29 10.543,32.593 11.453,30.908L14.959,24.55L5.608,4.828L0.413,4.828L0.413,-0.363L8.855,-0.363L11.323,4.828Z" transform="rotate(0 26.364 25.588)" fill="#6C6C6C"/>
</svg>
